HIERARCHY
ROOT Hips
{
    OFFSET 0.0 0.0 0.0
    CHANNELS 6 Xposition Yposition Zposition Zrotation Xrotation Yrotation
    JOINT LeftHipJoint
    {
        OFFSET 0.1 0.0 0.0
        CHANNELS 3 Zrotation Xrotation Yrotation
        JOINT LeftUpLeg
        {
            OFFSET 124.3543748569561 0.0 0.0
            CHANNELS 3 Zrotation Xrotation Yrotation
            JOINT LeftLeg
            {
                OFFSET 0.0 0.0 -406.64604380772715
                CHANNELS 3 Zrotation Xrotation Yrotation
                JOINT LeftFoot
                {
                    OFFSET 0.0 0.0 -379.09291584280146
                    CHANNELS 3 Zrotation Xrotation Yrotation
                    End Site
                    {
                        OFFSET 0.0 -0.1 0.0
                    }
                }
            }
        }
    }
    JOINT LowerBack
    {
        OFFSET 0.0 0.0 0.1
        CHANNELS 3 Zrotation Xrotation Yrotation
        JOINT Spine
        {
            OFFSET 0.0 0.0 216.53150159420323
            CHANNELS 3 Zrotation Xrotation Yrotation
            JOINT Spine1
            {
                OFFSET 0.0 0.0 248.69589992049396
                CHANNELS 3 Zrotation Xrotation Yrotation
                JOINT LeftShoulder
                {
                    OFFSET 0.1 0.0 0.0
                    CHANNELS 3 Zrotation Xrotation Yrotation
                    JOINT LeftArm
                    {
                        OFFSET 143.2620845034126 0.0 0.0
                        CHANNELS 3 Zrotation Xrotation Yrotation
                        JOINT LeftForeArm
                        {
                            OFFSET 264.5328272719615 0.0 0.0
                            CHANNELS 3 Zrotation Xrotation Yrotation
                            JOINT LeftHand
                            {
                                OFFSET 238.90114060125782 0.0 0.0
                                CHANNELS 3 Zrotation Xrotation Yrotation
                                End Site
                                {
                                    OFFSET 0.1 0.0 0.0
                                }
                            }
                        }
                    }
                }
                JOINT Neck
                {
                    OFFSET 0.0 0.0 0.1
                    CHANNELS 3 Zrotation Xrotation Yrotation
                    JOINT Neck1
                    {
                        OFFSET 0.0 0.0 107.24890784810601
                        CHANNELS 3 Zrotation Xrotation Yrotation
                        End Site
                        {
                            OFFSET 0.0 0.0 117.13443488663079
                        }
                    }
                }
                JOINT RightShoulder
                {
                    OFFSET -0.1 0.0 0.0
                    CHANNELS 3 Zrotation Xrotation Yrotation
                    JOINT RightArm
                    {
                        OFFSET -143.2620845034126 0.0 0.0
                        CHANNELS 3 Zrotation Xrotation Yrotation
                        JOINT RightForeArm
                        {
                            OFFSET -264.5328272719615 0.0 0.0
                            CHANNELS 3 Zrotation Xrotation Yrotation
                            JOINT RightHand
                            {
                                OFFSET -238.90114060125782 0.0 0.0
                                CHANNELS 3 Zrotation Xrotation Yrotation
                                End Site
                                {
                                    OFFSET -0.1 0.0 0.0
                                }
                            }
                        }
                    }
                }
            }
        }
    }
    JOINT RightHipJoint
    {
        OFFSET -0.1 0.0 0.0
        CHANNELS 3 Zrotation Xrotation Yrotation
        JOINT RightUpLeg
        {
            OFFSET -124.3543748569561 0.0 0.0
            CHANNELS 3 Zrotation Xrotation Yrotation
            JOINT RightLeg
            {
                OFFSET 0.0 0.0 -406.64604380772715
                CHANNELS 3 Zrotation Xrotation Yrotation
                JOINT RightFoot
                {
                    OFFSET 0.0 0.0 -379.09291584280146
                    CHANNELS 3 Zrotation Xrotation Yrotation
                    End Site
                    {
                        OFFSET 0.0 -0.1 0.0
                    }
                }
            }
        }
    }
}
MOTION
Frames: 8
Frame Time: 0.03333333333333333
0.0 0.0 823.664692621663 24.00572623480617 -0.22854909235557122 4.619285135978101 0.0 0.0 -1.4908850069360235e-16 -0.8787627182939084 -14.25704504492219 0.2620088895689334 2.01424110585065 27.717726661528083 -2.258839669147521 0.0 0.0 7.951386703658792e-16 0.0 0.0 -1.4908850069360235e-16 0.044137076730740535 0.7305941089374908 -2.5419148870418957 -0.21800409110165672 -1.98438630825199e-16 -1.8207945799109642e-16 0.0 0.0 -8.696829207126804e-17 -23.248811486209576 10.209659244167945 80.4010826438944 -29.721999191328926 -4.7132184684516135e-15 -8.393278435321288e-16 0.0 0.0 2.9817700138720468e-15 0.0 0.0 -8.696829207126804e-17 1.1756326321748973 -5.3398159887058325 -1.381240814808845 0.0 0.0 -8.696829207126804e-17 19.834427191318788 17.032801787709012 -76.36234185897042 40.719880042009585 -7.838985229089726e-15 6.301554680863129e-15 0.0 0.0 1.5902773407317584e-15 0.0 0.0 -1.4908850069360235e-16 -0.6474880014824403 -10.585444872077943 -3.613548382303658 -0.0502082623135156 27.896757764439478 0.37622765434448274 0.0 0.0 -3.975693351829396e-16
0.0 0.0 823.664692621663 24.08639150201869 -0.07938210426940998 4.606863074642983 0.0 0.0 4.969616689786745e-17 -0.8788156776908493 -14.504622069324643 0.30961924935246504 2.0237221053852377 27.90367690525297 -2.3613405101447382 5.517382872562698e-33 1.5902773407317582e-15 -3.9756933518293955e-16 0.0 0.0 4.969616689786745e-17 0.047915482284229614 0.8075556011695696 -2.451912441390572 -0.2781996801716302 -9.826094938311445e-17 -4.661414911840861e-16 0.0 0.0 8.696829207126804e-17 -22.35012106516983 10.401605588728437 80.27337179583496 -30.302426806902854 -5.044318169142307e-15 6.459948848599947e-15 0.0 0.0 0.0 0.0 0.0 8.696829207126804e-17 1.1242775261017544 -5.473203083456955 -1.4765432769444624 0.0 0.0 8.696829207126804e-17 19.18082804495756 17.407366397933384 -76.21632277738378 41.884311326090895 1.1368105471476992e-15 2.9704528041484257e-15 0.0 0.0 7.951386703658792e-16 0.0 0.0 4.969616689786745e-17 -0.653251425958763 -10.869035949929799 -3.55727170801125 -0.052385429813703956 28.124212873172134 0.2618585876354953 0.0 0.0 0.0
0.0 0.0 823.664692621663 24.177071717258283 0.14895247797930028 4.566874450082183 0.0 0.0 -9.93923337957349e-17 -0.8988587185486259 -14.894717032282509 0.3867228070536207 2.085600681082874 28.213916633893465 -2.557712802963759 0.0 0.0 0.0 0.0 0.0 -9.93923337957349e-17 0.056217551186065286 0.9523226049209134 -2.2399042983069477 -0.4028578691103426 -1.9694896955602202e-16 -5.225053733588144e-16 0.0 0.0 4.969616689786745e-17 -21.242650247939718 10.746639956236221 80.02658215368936 -31.08744889203695 -5.999063818829476e-16 -3.777653832035222e-15 0.0 0.0 -2.3854160110976376e-15 0.0 0.0 4.969616689786745e-17 1.0744278218682983 -5.758191786757381 -1.6335552527269535 0.0 0.0 4.969616689786745e-17 18.28194834823391 17.9867385640529 -76.27227659906423 43.25229487030242 -4.1812521948949934e-15 1.534325037686517e-14 0.0 0.0 7.951386703658792e-16 0.0 0.0 -9.93923337957349e-17 -0.6763809445678088 -11.299641535409807 -3.604597147865062 -0.08566439649875147 28.480761005380934 0.4088115910496754 -3.1805546814635168e-15 1.9878466759146977e-16 7.951386703658792e-16
0.0 0.0 823.664692621663 24.21630801318338 0.4633112607558383 4.578938706326528 0.0 0.0 -1.6151254241806922e-16 -0.9345208816447195 -15.278585885736717 0.3784119620957702 2.0988562767295202 28.114481389797735 -2.733818265888019 0.0 0.0 -3.975693351829396e-16 0.0 0.0 -1.6151254241806922e-16 0.06390714993574388 1.069444538050461 -2.1447420762633986 -0.5192633720927056 3.93736958441893e-16 8.466277139860191e-16 0.0 0.0 0.0 -20.497030136595722 11.409188974578383 79.93085299393117 -31.739912772543597 1.7122970938225063e-15 -6.0230506236789915e-15 -1.5902773407317584e-15 -1.3793457181406746e-32 9.93923337957349e-16 0.0 0.0 0.0 1.2142500667015241 -6.0408712770560085 -1.7596531045391057 0.0 0.0 0.0 17.39235181013099 18.903259370946618 -76.29670690290992 44.70323122490198 2.9415916734726054e-15 -1.2095315243250716e-15 0.0 0.0 3.1805546814635168e-15 0.0 0.0 -1.6151254241806922e-16 -0.708363205050184 -11.680859348572278 -3.638192009063068 -0.07829886952075672 28.432397660722888 0.4141644723891425 0.0 0.0 -3.975693351829396e-16
0.0 0.0 823.664692621663 24.26777084038732 0.8181042851606668 4.638670878814113 0.0 0.0 -5.34233794152075e-16 -0.9660355570858968 -15.744157008604438 0.24517837308841833 2.0439989905456377 28.220118617905484 -2.742928145652919 0.0 0.0 -3.975693351829396e-16 0.0 0.0 -5.34233794152075e-16 0.06977381891792286 1.1655482263665857 -2.167809769482206 -0.37211780498359365 -3.9934241994014725e-16 5.453639128502875e-16 0.0 0.0 4.969616689786745e-17 -19.671704891325163 11.494084894757998 79.46081177244531 -32.69583087058326 -4.2223209953229697e-16 -9.860377436250685e-15 0.0 0.0 9.93923337957349e-16 0.0 0.0 4.969616689786745e-17 1.174862455132339 -6.348902795279786 -1.7893686801006894 0.0 0.0 4.969616689786745e-17 16.4775818481895 18.55503873552002 -75.68690565022048 45.74331943831366 -1.0485788825051676e-14 7.87521492447494e-15 0.0 0.0 -3.1805546814635168e-15 0.0 0.0 -5.34233794152075e-16 -0.7425805343817593 -12.205769114832107 -3.7842674960808127 -0.1513115566822058 28.575435683801285 0.5156007006103 0.0 0.0 7.951386703658792e-16
0.0 0.0 823.664692621663 24.208796004348027 1.092965497734145 4.620718862392512 -3.1805546814635168e-15 1.987846675914698e-16 4.659015646675074e-17 -0.9861900186138335 -16.166696258308058 0.27853500518381363 2.0667149931758737 28.387900535046953 -2.8977911512768864 0.0 0.0 3.975693351829396e-16 -3.1805546814635168e-15 1.987846675914698e-16 4.659015646675074e-17 0.06990456719089969 1.1761735296332392 -2.1130858256179903 -0.31313043702347976 -6.789925551790462e-19 2.484799067885116e-16 0.0 0.0 1.4908850069360235e-16 -18.7832380162909 11.611588376236176 79.01189862863872 -33.64453866118575 2.615276689897405e-15 -3.1550513569189345e-15 0.0 0.0 3.1805546814635168e-15 0.0 0.0 1.4908850069360235e-16 1.1366713399851938 -6.543754538324276 -1.7940348169726665 0.0 0.0 1.4908850069360235e-16 15.843785404097991 18.31953191204214 -75.29077902387345 46.64099349402975 5.841437400109144e-15 -2.5181980517274817e-15 -2.2069531490250793e-31 6.361109362927035e-15 3.975693351829397e-15 -3.1805546814635168e-15 1.987846675914698e-16 4.659015646675074e-17 -0.7660462848790792 -12.6666416297962 -3.7511841246793898 -0.14522159020913517 28.8480637796455 0.4513485329627329 0.0 0.0 3.975693351829396e-16
0.0 0.0 823.664692621663 24.190442358078336 1.3693102704381181 4.614679245219382 0.0 0.0 -3.2302508483613845e-16 -1.0284258131508572 -16.61727873193314 0.21735786403448043 2.0851545712744977 28.644230666122212 -2.885040306715627 6.896728590703373e-34 -1.987846675914698e-16 3.975693351829396e-16 0.0 0.0 -3.2302508483613845e-16 0.06744859333103899 1.1202548084610564 -2.0248379799014558 -0.34960851159402545 -6.95591480263675e-16 -5.181859164148064e-17 3.1805546814635164e-15 1.1034765745125397e-32 3.9756933518293955e-16 -18.220749622498168 11.647714702433971 78.57782671189257 -34.5234019176494 2.845850697275617e-15 -3.799310301149459e-15 -1.5902773407317582e-15 1.5902773407317584e-15 -9.54166404439055e-15 3.1805546814635164e-15 1.1034765745125397e-32 3.9756933518293955e-16 0.9574668901106542 -6.640943942928862 -1.9296021434302277 3.1805546814635164e-15 1.1034765745125397e-32 3.9756933518293955e-16 15.393546457009187 18.222020284185728 -74.9178541405033 47.66306594478925 -1.0175217393264596e-15 2.131153239891667e-14 0.0 0.0 -2.3854160110976376e-15 0.0 0.0 -3.2302508483613845e-16 -0.802674086246661 -13.08543414241364 -3.711843604608764 -0.09707560769213769 29.296585153346715 0.2714709852109301 0.0 0.0 3.975693351829396e-16
0.0 0.0 823.664692621663 24.08074683493441 1.6883389139111535 4.6432920713383075 0.0 0.0 3.4787316828507215e-16 -1.0786982425812697 -17.13790092689604 0.12060213683483766 2.0936778791022497 28.948241742630895 -2.835237672853155 0.0 0.0 1.1927080055488186e-15 0.0 0.0 3.4787316828507215e-16 0.06251483302322053 1.0227746712691446 -1.9778987722657766 -0.2983330050246486 -2.9908165907071314e-16 3.47095702330739e-16 0.0 0.0 4.969616689786745e-17 -17.465764009436988 11.98961103581046 78.1925945600986 -35.82012435017417 -1.9871992690409717e-15 -4.1936739957910305e-15 -1.5902773407317584e-15 -3.310429723537619e-32 2.3854160110976376e-15 0.0 0.0 4.969616689786745e-17 0.743170005592475 -6.881892912488808 -2.0139093531459396 0.0 0.0 4.969616689786745e-17 14.9627737873421 18.173211635189 -74.55521652417126 48.61421412332048 -1.2903625816674698e-14 2.3382083255128567e-15 0.0 0.0 0.0 0.0 0.0 3.4787316828507215e-16 -0.8487902635089636 -13.608636887034363 -3.723241832616482 -0.07055976757729446 29.858782817925206 0.11742825215831144 0.0 0.0 3.975693351829396e-16
